<svg width="2000px" height="1807px"
 viewBox="0.00 0.00 746.70 674.79" xmlns="http://www.w3.org/2000/svg" xmlns:xlink="http://www.w3.org/1999/xlink">
<g id="graph0" class="graph" transform="scale(1.0 1.0) rotate(0) translate(4 670.79)">
<title>ContextMapGraph</title>
<polygon fill="white" stroke="transparent" points="-4,4 -4,-670.79 742.7,-670.79 742.7,4 -4,4"/>
<!-- GestionAlquileres -->
<g id="node1" class="node">
<title>GestionAlquileres</title>
<polygon fill="none" stroke="black" stroke-width="2" points="148.77,-376.67 140.9,-375.51 133.22,-374.25 125.78,-372.89 118.6,-371.43 111.71,-369.89 105.15,-368.26 98.93,-366.55 93.08,-364.78 87.62,-362.93 82.58,-361.03 77.97,-359.07 73.82,-357.06 70.12,-355 66.9,-352.91 64.16,-350.79 61.91,-348.64 60.16,-346.47 58.9,-344.29 58.13,-342.09 57.86,-339.89 58.06,-337.69 58.75,-335.5 59.9,-333.32 61.5,-331.15 63.54,-329.01 66,-326.89 68.87,-324.8 72.13,-322.74 75.75,-320.73 79.72,-318.75 84.01,-316.83 88.6,-314.95 93.46,-313.13 98.58,-311.37 103.93,-309.67 109.49,-308.04 115.22,-306.48 121.12,-304.99 127.15,-303.58 133.29,-302.24 139.52,-300.99 145.83,-299.83 152.19,-298.75 158.58,-297.76 164.98,-296.87 171.39,-296.08 177.78,-295.38 184.13,-294.79 190.45,-294.3 196.71,-293.92 202.91,-293.64 209.03,-293.47 215.07,-293.42 221.02,-293.47 226.87,-293.64 232.62,-293.92 238.26,-294.31 243.79,-294.82 249.21,-295.45 254.5,-296.18 259.68,-297.03 264.72,-297.99 269.64,-299.06 274.43,-300.25 279.09,-301.53 283.6,-302.92 287.97,-304.42 292.2,-306.01 296.27,-307.69 300.19,-309.47 303.95,-311.33 307.53,-313.27 310.94,-315.29 314.16,-317.38 317.18,-319.54 320,-321.76 322.61,-324.02 325,-326.34 327.14,-328.69 329.04,-331.08 330.68,-333.49 332.05,-335.92 333.14,-338.36 333.93,-340.8 334.41,-343.23 334.57,-345.66 334.4,-348.06 333.9,-350.43 333.04,-352.76 331.81,-355.05 330.23,-357.29 328.26,-359.46 325.92,-361.57 323.19,-363.61 320.08,-365.57 316.57,-367.43 312.69,-369.21 308.42,-370.89 303.77,-372.46 298.75,-373.92 293.37,-375.27 287.63,-376.5 281.57,-377.61 275.18,-378.6 268.48,-379.45 261.5,-380.18 254.26,-380.78 246.78,-381.24 239.08,-381.57 231.2,-381.77 223.15,-381.84 214.98,-381.77 206.71,-381.57 198.37,-381.24 189.99,-380.78 181.61,-380.2 173.27,-379.49 164.99,-378.67 156.82,-377.73 148.77,-376.67"/>
<text text-anchor="middle" x="203.7" y="-332.86" font-family="sans-serif" font-size="16.00">GestionAlquileres</text>
</g>
<!-- GestionPagos -->
<g id="node2" class="node">
<title>GestionPagos</title>
<polygon fill="none" stroke="black" stroke-width="2" points="467.17,-165.66 471.94,-167.79 476.45,-169.98 480.68,-172.23 484.63,-174.52 488.26,-176.86 491.57,-179.23 494.55,-181.63 497.17,-184.04 499.42,-186.46 501.31,-188.87 502.81,-191.28 503.92,-193.68 504.64,-196.05 504.97,-198.39 504.9,-200.69 504.44,-202.95 503.58,-205.16 502.34,-207.32 500.72,-209.43 498.72,-211.47 496.36,-213.44 493.64,-215.35 490.59,-217.18 487.21,-218.93 483.52,-220.61 479.54,-222.2 475.29,-223.72 470.78,-225.15 466.03,-226.49 461.06,-227.75 455.9,-228.92 450.57,-230.01 445.08,-231.01 439.46,-231.92 433.73,-232.74 427.91,-233.47 422.03,-234.12 416.1,-234.68 410.14,-235.15 404.18,-235.53 398.23,-235.82 392.32,-236.03 386.45,-236.15 380.65,-236.18 374.94,-236.12 369.32,-235.98 363.81,-235.75 358.43,-235.43 353.19,-235.02 348.09,-234.52 343.15,-233.93 338.37,-233.25 333.77,-232.49 329.35,-231.63 325.11,-230.69 321.06,-229.65 317.21,-228.53 313.56,-227.32 310.11,-226.02 306.86,-224.63 303.82,-223.15 300.98,-221.59 298.36,-219.95 295.94,-218.23 293.72,-216.43 291.72,-214.55 289.93,-212.6 288.34,-210.57 286.96,-208.49 285.8,-206.34 284.84,-204.14 284.09,-201.88 283.55,-199.58 283.22,-197.24 283.11,-194.87 283.21,-192.47 283.52,-190.05 284.05,-187.62 284.79,-185.19 285.75,-182.76 286.94,-180.34 288.34,-177.94 289.97,-175.57 291.83,-173.25 293.91,-170.96 296.21,-168.74 298.75,-166.57 301.51,-164.48 304.5,-162.48 307.71,-160.56 311.15,-158.74 314.81,-157.02 318.69,-155.42 322.79,-153.93 327.09,-152.57 331.6,-151.35 336.31,-150.26 341.21,-149.31 346.28,-148.51 351.53,-147.85 356.93,-147.35 362.48,-147.01 368.16,-146.82 373.96,-146.79 379.86,-146.92 385.84,-147.2 391.89,-147.64 397.99,-148.23 404.11,-148.97 410.25,-149.86 416.37,-150.89 422.45,-152.06 428.48,-153.36 434.42,-154.79 440.27,-156.34 445.99,-158.01 451.56,-159.78 456.96,-161.65 462.18,-163.62 467.17,-165.66"/>
<text text-anchor="middle" x="385.7" y="-190.85" font-family="sans-serif" font-size="16.00">GestionPagos</text>
</g>
<!-- GestionAlquileres&#45;&gt;GestionPagos -->
<g id="edge1" class="edge">
<title>GestionAlquileres&#45;&gt;GestionPagos</title>
<path fill="none" stroke="black" stroke-width="2" d="M205.99,-293.41C208.44,-281.7 212.87,-269.71 220.7,-260.58 239.15,-239.09 265.64,-224.66 292.03,-214.99"/>
<text text-anchor="middle" x="296.2" y="-263.98" font-family="sans-serif" font-size="12.00"> &#160;&#160;&#160;&#160;&#160;&#160;&#160;&#160;&#160;&#160;&#160;&#160;&#160;&#160;&#160;&#160;&#160;&#160;&#160;&#160;&#160;&#160;&#160;&#160;&#160;&#160;&#160;&#160;&#160;&#160;&#160;&#160;&#160;&#160;&#160;&#160;&#160;&#160;&#160;</text>
<polygon fill="white" stroke="transparent" points="269.03,-204.99 269.03,-223.99 285.03,-223.99 285.03,-204.99 269.03,-204.99"/>
<polyline fill="none" stroke="black" points="285.03,-204.99 285.03,-223.99 "/>
<text text-anchor="start" x="272.03" y="-211.39" font-family="sans-serif" font-size="12.00">D</text>
<polygon fill="white" stroke="transparent" points="285.03,-204.99 285.03,-223.99 315.03,-223.99 315.03,-204.99 285.03,-204.99"/>
<polygon fill="none" stroke="black" points="285.03,-204.99 285.03,-223.99 315.03,-223.99 315.03,-204.99 285.03,-204.99"/>
<text text-anchor="start" x="288.03" y="-211.39" font-family="sans-serif" font-size="12.00">ACL</text>
<polygon fill="white" stroke="transparent" points="198.99,-284.41 198.99,-301.41 212.99,-301.41 212.99,-284.41 198.99,-284.41"/>
<text text-anchor="start" x="200.99" y="-289.81" font-family="sans-serif" font-size="12.00">U</text>
</g>
<!-- GestionSeguridad -->
<g id="node3" class="node">
<title>GestionSeguridad</title>
<polygon fill="none" stroke="black" stroke-width="2" points="589.72,-71.84 585.24,-74.3 580.48,-76.68 575.44,-78.97 570.15,-81.17 564.64,-83.25 558.91,-85.22 552.99,-87.07 546.89,-88.78 540.65,-90.36 534.27,-91.79 527.78,-93.08 521.2,-94.21 514.54,-95.18 507.82,-95.99 501.07,-96.63 494.3,-97.11 487.53,-97.43 480.78,-97.58 474.05,-97.57 467.37,-97.39 460.76,-97.06 454.22,-96.56 447.77,-95.92 441.43,-95.13 435.21,-94.2 429.11,-93.13 423.16,-91.93 417.35,-90.6 411.71,-89.16 406.25,-87.61 400.96,-85.96 395.87,-84.22 390.97,-82.39 386.29,-80.49 381.82,-78.52 377.58,-76.49 373.57,-74.4 369.81,-72.28 366.28,-70.12 363.02,-67.93 360.01,-65.72 357.27,-63.49 354.81,-61.27 352.63,-59.04 350.73,-56.81 349.13,-54.6 347.82,-52.41 346.81,-50.24 346.12,-48.1 345.73,-45.98 345.66,-43.9 345.92,-41.86 346.49,-39.86 347.4,-37.91 348.63,-35.99 350.19,-34.13 352.08,-32.32 354.3,-30.55 356.85,-28.84 359.74,-27.18 362.94,-25.58 366.47,-24.03 370.32,-22.53 374.48,-21.1 378.94,-19.72 383.7,-18.39 388.75,-17.13 394.08,-15.93 399.67,-14.79 405.52,-13.71 411.61,-12.7 417.92,-11.75 424.45,-10.87 431.16,-10.06 438.05,-9.33 445.09,-8.66 452.26,-8.08 459.55,-7.57 466.92,-7.15 474.37,-6.81 481.85,-6.56 489.36,-6.4 496.86,-6.34 504.33,-6.38 511.74,-6.51 519.07,-6.75 526.3,-7.1 533.4,-7.56 540.34,-8.12 547.1,-8.8 553.66,-9.6 559.99,-10.51 566.08,-11.54 571.89,-12.69 577.41,-13.95 582.62,-15.34 587.5,-16.83 592.03,-18.45 596.2,-20.17 600,-22.01 603.41,-23.95 606.41,-25.99 609.01,-28.13 611.2,-30.35 612.96,-32.67 614.29,-35.06 615.2,-37.52 615.67,-40.05 615.72,-42.63 615.34,-45.26 614.53,-47.92 613.31,-50.61 611.69,-53.31 609.66,-56.03 607.24,-58.74 604.44,-61.43 601.27,-64.1 597.75,-66.73 593.9,-69.32 589.72,-71.84"/>
<text text-anchor="middle" x="475.7" y="-45.06" font-family="sans-serif" font-size="16.00">GestionSeguridad</text>
</g>
<!-- GestionPagos&#45;&gt;GestionSeguridad -->
<g id="edge2" class="edge">
<title>GestionPagos&#45;&gt;GestionSeguridad</title>
<path fill="none" stroke="black" stroke-width="2" d="M388.74,-147.35C390.86,-136.47 394.26,-125.28 399.7,-115.72 404.71,-106.92 411.35,-98.72 418.62,-91.31"/>
<text text-anchor="middle" x="475.2" y="-119.12" font-family="sans-serif" font-size="12.00"> &#160;&#160;&#160;&#160;&#160;&#160;&#160;&#160;&#160;&#160;&#160;&#160;&#160;&#160;&#160;&#160;&#160;&#160;&#160;&#160;&#160;&#160;&#160;&#160;&#160;&#160;&#160;&#160;&#160;&#160;&#160;&#160;&#160;&#160;&#160;&#160;&#160;&#160;&#160;</text>
<polygon fill="white" stroke="transparent" points="395.62,-81.31 395.62,-100.31 411.62,-100.31 411.62,-81.31 395.62,-81.31"/>
<polyline fill="none" stroke="black" points="411.62,-81.31 411.62,-100.31 "/>
<text text-anchor="start" x="398.62" y="-87.71" font-family="sans-serif" font-size="12.00">D</text>
<polygon fill="white" stroke="transparent" points="411.62,-81.31 411.62,-100.31 441.62,-100.31 441.62,-81.31 411.62,-81.31"/>
<polygon fill="none" stroke="black" points="411.62,-81.31 411.62,-100.31 441.62,-100.31 441.62,-81.31 411.62,-81.31"/>
<text text-anchor="start" x="414.62" y="-87.71" font-family="sans-serif" font-size="12.00">ACL</text>
<polygon fill="white" stroke="transparent" points="381.74,-138.35 381.74,-155.35 395.74,-155.35 395.74,-138.35 381.74,-138.35"/>
<text text-anchor="start" x="383.74" y="-143.75" font-family="sans-serif" font-size="12.00">U</text>
</g>
<!-- GestionClientes -->
<g id="node4" class="node">
<title>GestionClientes</title>
<polygon fill="none" stroke="black" stroke-width="2" points="468.92,-518.3 461.43,-519.25 453.88,-520.07 446.31,-520.77 438.73,-521.35 431.19,-521.79 423.71,-522.09 416.31,-522.27 409.03,-522.3 401.88,-522.19 394.91,-521.95 388.12,-521.56 381.54,-521.04 375.19,-520.38 369.09,-519.58 363.25,-518.65 357.7,-517.59 352.44,-516.4 347.48,-515.09 342.83,-513.65 338.51,-512.1 334.52,-510.44 330.86,-508.68 327.53,-506.82 324.54,-504.87 321.88,-502.83 319.55,-500.71 317.56,-498.53 315.89,-496.28 314.54,-493.97 313.5,-491.62 312.77,-489.23 312.34,-486.81 312.19,-484.36 312.33,-481.9 312.74,-479.44 313.41,-476.97 314.34,-474.52 315.51,-472.08 316.92,-469.66 318.55,-467.28 320.39,-464.94 322.45,-462.65 324.71,-460.41 327.16,-458.23 329.8,-456.11 332.63,-454.07 335.62,-452.1 338.79,-450.21 342.13,-448.41 345.62,-446.7 349.28,-445.08 353.08,-443.56 357.05,-442.14 361.16,-440.82 365.41,-439.61 369.82,-438.5 374.36,-437.5 379.04,-436.61 383.86,-435.83 388.81,-435.16 393.9,-434.6 399.11,-434.16 404.44,-433.82 409.88,-433.59 415.44,-433.47 421.09,-433.46 426.85,-433.55 432.68,-433.75 438.6,-434.06 444.57,-434.47 450.6,-434.97 456.67,-435.58 462.77,-436.28 468.87,-437.08 474.96,-437.97 481.02,-438.95 487.05,-440.01 493,-441.17 498.88,-442.4 504.64,-443.72 510.28,-445.11 515.77,-446.58 521.09,-448.12 526.21,-449.72 531.11,-451.4 535.77,-453.14 540.17,-454.93 544.29,-456.79 548.1,-458.7 551.58,-460.65 554.71,-462.65 557.48,-464.7 559.87,-466.78 561.86,-468.89 563.44,-471.04 564.59,-473.21 565.31,-475.4 565.59,-477.6 565.41,-479.81 564.78,-482.03 563.69,-484.25 562.15,-486.46 560.14,-488.66 557.69,-490.84 554.79,-493 551.46,-495.13 547.7,-497.22 543.54,-499.27 538.97,-501.27 534.03,-503.21 528.73,-505.1 523.1,-506.91 517.15,-508.66 510.91,-510.32 504.41,-511.9 497.67,-513.38 490.72,-514.77 483.59,-516.06 476.31,-517.23 468.92,-518.3"/>
<text text-anchor="middle" x="430.7" y="-472.63" font-family="sans-serif" font-size="16.00">GestionClientes</text>
</g>
<!-- GestionClientes&#45;&gt;GestionAlquileres -->
<g id="edge4" class="edge">
<title>GestionClientes&#45;&gt;GestionAlquileres</title>
<path fill="none" stroke="black" stroke-width="2" d="M341.29,-448.55C321.67,-442.67 300.99,-436.49 281.7,-430.75 254.61,-422.69 240.04,-433.37 220.7,-412.75 212.75,-404.27 208.24,-392.88 205.75,-381.54"/>
<text text-anchor="middle" x="296.2" y="-403.15" font-family="sans-serif" font-size="12.00"> &#160;&#160;&#160;&#160;&#160;&#160;&#160;&#160;&#160;&#160;&#160;&#160;&#160;&#160;&#160;&#160;&#160;&#160;&#160;&#160;&#160;&#160;&#160;&#160;&#160;&#160;&#160;&#160;&#160;&#160;&#160;&#160;&#160;&#160;&#160;&#160;&#160;&#160;&#160;</text>
<polygon fill="white" stroke="transparent" points="198.75,-372.54 198.75,-389.54 212.75,-389.54 212.75,-372.54 198.75,-372.54"/>
<text text-anchor="start" x="200.75" y="-377.94" font-family="sans-serif" font-size="12.00">D</text>
<polygon fill="white" stroke="transparent" points="334.29,-439.55 334.29,-456.55 348.29,-456.55 348.29,-439.55 334.29,-439.55"/>
<text text-anchor="start" x="336.29" y="-444.95" font-family="sans-serif" font-size="12.00">U</text>
</g>
<!-- GestionClientes&#45;&gt;GestionPagos -->
<g id="edge5" class="edge">
<title>GestionClientes&#45;&gt;GestionPagos</title>
<path fill="none" stroke="black" stroke-width="2" d="M414.26,-433.12C408.75,-417.24 403.13,-398.89 399.7,-381.75 389.82,-332.35 386.78,-274.3 385.91,-236.33"/>
<text text-anchor="middle" x="475.2" y="-333.56" font-family="sans-serif" font-size="12.00"> &#160;&#160;&#160;&#160;&#160;&#160;&#160;&#160;&#160;&#160;&#160;&#160;&#160;&#160;&#160;&#160;&#160;&#160;&#160;&#160;&#160;&#160;&#160;&#160;&#160;&#160;&#160;&#160;&#160;&#160;&#160;&#160;&#160;&#160;&#160;&#160;&#160;&#160;&#160;</text>
<polygon fill="white" stroke="transparent" points="362.91,-226.33 362.91,-245.33 378.91,-245.33 378.91,-226.33 362.91,-226.33"/>
<polyline fill="none" stroke="black" points="378.91,-226.33 378.91,-245.33 "/>
<text text-anchor="start" x="365.91" y="-232.73" font-family="sans-serif" font-size="12.00">D</text>
<polygon fill="white" stroke="transparent" points="378.91,-226.33 378.91,-245.33 408.91,-245.33 408.91,-226.33 378.91,-226.33"/>
<polygon fill="none" stroke="black" points="378.91,-226.33 378.91,-245.33 408.91,-245.33 408.91,-226.33 378.91,-226.33"/>
<text text-anchor="start" x="381.91" y="-232.73" font-family="sans-serif" font-size="12.00">ACL</text>
<polygon fill="white" stroke="transparent" points="407.26,-424.12 407.26,-441.12 421.26,-441.12 421.26,-424.12 407.26,-424.12"/>
<text text-anchor="start" x="409.26" y="-429.52" font-family="sans-serif" font-size="12.00">U</text>
</g>
<!-- GestionClientes&#45;&gt;GestionSeguridad -->
<g id="edge3" class="edge">
<title>GestionClientes&#45;&gt;GestionSeguridad</title>
<path fill="none" stroke="black" stroke-width="2" d="M494.95,-441.48C516.8,-426.35 538.71,-406.34 550.7,-381.75 602.55,-275.49 599.46,-223.43 550.7,-115.72 546.77,-107.04 541.07,-99.05 534.54,-91.85"/>
<text text-anchor="middle" x="663.2" y="-263.98" font-family="sans-serif" font-size="12.00"> &#160;&#160;&#160;&#160;&#160;&#160;&#160;&#160;&#160;&#160;&#160;&#160;&#160;&#160;&#160;&#160;&#160;&#160;&#160;&#160;&#160;&#160;&#160;&#160;&#160;&#160;&#160;&#160;&#160;&#160;&#160;&#160;&#160;&#160;&#160;&#160;&#160;&#160;&#160;</text>
<polygon fill="white" stroke="transparent" points="511.54,-81.85 511.54,-100.85 527.54,-100.85 527.54,-81.85 511.54,-81.85"/>
<polyline fill="none" stroke="black" points="527.54,-81.85 527.54,-100.85 "/>
<text text-anchor="start" x="514.54" y="-88.25" font-family="sans-serif" font-size="12.00">D</text>
<polygon fill="white" stroke="transparent" points="527.54,-81.85 527.54,-100.85 557.54,-100.85 557.54,-81.85 527.54,-81.85"/>
<polygon fill="none" stroke="black" points="527.54,-81.85 527.54,-100.85 557.54,-100.85 557.54,-81.85 527.54,-81.85"/>
<text text-anchor="start" x="530.54" y="-88.25" font-family="sans-serif" font-size="12.00">ACL</text>
<polygon fill="white" stroke="transparent" points="487.95,-432.48 487.95,-449.48 501.95,-449.48 501.95,-432.48 487.95,-432.48"/>
<text text-anchor="start" x="489.95" y="-437.88" font-family="sans-serif" font-size="12.00">U</text>
</g>
<!-- GestionVehiculos -->
<g id="node5" class="node">
<title>GestionVehiculos</title>
<polygon fill="none" stroke="black" stroke-width="2" points="219.68,-654.22 212.93,-655.95 206,-657.57 198.93,-659.08 191.74,-660.46 184.46,-661.72 177.12,-662.84 169.75,-663.83 162.37,-664.67 155,-665.37 147.68,-665.92 140.42,-666.31 133.25,-666.55 126.18,-666.63 119.25,-666.56 112.46,-666.33 105.84,-665.95 99.4,-665.41 93.16,-664.73 87.13,-663.89 81.32,-662.91 75.75,-661.79 70.42,-660.53 65.34,-659.15 60.52,-657.64 55.96,-656.01 51.66,-654.27 47.64,-652.43 43.9,-650.49 40.43,-648.47 37.23,-646.36 34.31,-644.19 31.67,-641.95 29.3,-639.65 27.2,-637.32 25.38,-634.94 23.82,-632.54 22.53,-630.12 21.5,-627.69 20.73,-625.25 20.23,-622.82 19.98,-620.41 19.99,-618.01 20.25,-615.65 20.76,-613.31 21.52,-611.02 22.54,-608.78 23.8,-606.58 25.3,-604.45 27.06,-602.38 29.06,-600.37 31.31,-598.44 33.8,-596.58 36.54,-594.79 39.52,-593.09 42.75,-591.47 46.22,-589.93 49.94,-588.48 53.9,-587.12 58.09,-585.85 62.52,-584.66 67.19,-583.57 72.08,-582.56 77.2,-581.65 82.53,-580.83 88.08,-580.1 93.83,-579.45 99.77,-578.9 105.89,-578.44 112.19,-578.07 118.64,-577.79 125.24,-577.59 131.97,-577.49 138.81,-577.47 145.74,-577.55 152.75,-577.71 159.82,-577.95 166.92,-578.29 174.03,-578.71 181.13,-579.22 188.19,-579.82 195.2,-580.51 202.12,-581.28 208.93,-582.14 215.61,-583.09 222.12,-584.12 228.45,-585.24 234.56,-586.45 240.44,-587.74 246.05,-589.12 251.37,-590.58 256.38,-592.12 261.06,-593.74 265.39,-595.44 269.34,-597.21 272.89,-599.06 276.04,-600.98 278.76,-602.97 281.05,-605.02 282.88,-607.13 284.26,-609.29 285.17,-611.51 285.61,-613.77 285.57,-616.07 285.06,-618.4 284.07,-620.76 282.62,-623.14 280.69,-625.53 278.32,-627.93 275.49,-630.33 272.23,-632.72 268.55,-635.08 264.47,-637.43 260,-639.74 255.16,-642 249.98,-644.22 244.47,-646.37 238.66,-648.46 232.58,-650.46 226.24,-652.39 219.68,-654.22"/>
<text text-anchor="middle" x="142.7" y="-615.15" font-family="sans-serif" font-size="16.00">GestionVehiculos</text>
</g>
<!-- GestionVehiculos&#45;&gt;GestionAlquileres -->
<g id="edge7" class="edge">
<title>GestionVehiculos&#45;&gt;GestionAlquileres</title>
<path fill="none" stroke="black" stroke-width="2" d="M133.26,-577.4C126.08,-538.71 119.86,-479.29 135.7,-430.75 141.79,-412.11 153.18,-394.09 164.92,-378.96"/>
<text text-anchor="middle" x="211.2" y="-473.33" font-family="sans-serif" font-size="12.00"> &#160;&#160;&#160;&#160;&#160;&#160;&#160;&#160;&#160;&#160;&#160;&#160;&#160;&#160;&#160;&#160;&#160;&#160;&#160;&#160;&#160;&#160;&#160;&#160;&#160;&#160;&#160;&#160;&#160;&#160;&#160;&#160;&#160;&#160;&#160;&#160;&#160;&#160;&#160;</text>
<polygon fill="white" stroke="transparent" points="157.92,-369.96 157.92,-386.96 171.92,-386.96 171.92,-369.96 157.92,-369.96"/>
<text text-anchor="start" x="159.92" y="-375.36" font-family="sans-serif" font-size="12.00">D</text>
<polygon fill="white" stroke="transparent" points="126.26,-568.4 126.26,-585.4 140.26,-585.4 140.26,-568.4 126.26,-568.4"/>
<text text-anchor="start" x="128.26" y="-573.8" font-family="sans-serif" font-size="12.00">U</text>
</g>
<!-- GestionVehiculos&#45;&gt;GestionClientes -->
<g id="edge6" class="edge">
<title>GestionVehiculos&#45;&gt;GestionClientes</title>
<path fill="none" stroke="black" stroke-width="2" d="M214.63,-582.86C256.2,-562.58 308.57,-537.03 351.33,-516.16"/>
<text text-anchor="middle" x="370.2" y="-543.52" font-family="sans-serif" font-size="12.00"> &#160;&#160;&#160;&#160;&#160;&#160;&#160;&#160;&#160;&#160;&#160;&#160;&#160;&#160;&#160;&#160;&#160;&#160;&#160;&#160;&#160;&#160;&#160;&#160;&#160;&#160;&#160;&#160;&#160;&#160;&#160;&#160;&#160;&#160;&#160;&#160;&#160;&#160;&#160;</text>
<polygon fill="white" stroke="transparent" points="332.33,-506.16 332.33,-525.16 348.33,-525.16 348.33,-506.16 332.33,-506.16"/>
<polyline fill="none" stroke="black" points="348.33,-506.16 348.33,-525.16 "/>
<text text-anchor="start" x="335.33" y="-512.56" font-family="sans-serif" font-size="12.00">D</text>
<polygon fill="white" stroke="transparent" points="348.33,-506.16 348.33,-525.16 370.33,-525.16 370.33,-506.16 348.33,-506.16"/>
<polygon fill="none" stroke="black" points="348.33,-506.16 348.33,-525.16 370.33,-525.16 370.33,-506.16 348.33,-506.16"/>
<text text-anchor="start" x="351.33" y="-512.56" font-family="sans-serif" font-size="12.00">CF</text>
<polygon fill="white" stroke="transparent" points="207.63,-573.86 207.63,-590.86 221.63,-590.86 221.63,-573.86 207.63,-573.86"/>
<text text-anchor="start" x="209.63" y="-579.26" font-family="sans-serif" font-size="12.00">U</text>
</g>
</g>
</svg>
